<svg xmlns="http://www.w3.org/2000/svg" width="700" height="240" viewBox="0 0 700 240" role="img"><rect width="700" height="240" rx="10" fill="#0d1117" stroke="#30363d" stroke-width="1"/><text x="24" y="34" font-family="'JetBrains Mono','Fira Code',Consolas,monospace" font-size="16" font-weight="700" fill="#c9d1d9">Top Languages</text><rect x="24.0" y="54" width="228.6" height="14" fill="#e34c26"/><rect x="252.6" y="54" width="145.1" height="14" fill="#563d7c"/><rect x="397.7" y="54" width="137.2" height="14" fill="#8b949e"/><rect x="534.9" y="54" width="71.3" height="14" fill="#3572A5"/><rect x="606.2" y="54" width="39.3" height="14" fill="#8b949e"/><rect x="645.6" y="54" width="21.1" height="14" fill="#f1e05a"/><circle cx="30.0" cy="93" r="5" fill="#e34c26"/><text x="42.0" y="98" font-family="'JetBrains Mono','Fira Code',Consolas,monospace" font-size="12" fill="#c9d1d9">HTML <tspan fill="#8b949e">35.1%</tspan></text><circle cx="356.0" cy="93" r="5" fill="#563d7c"/><text x="368.0" y="98" font-family="'JetBrains Mono','Fira Code',Consolas,monospace" font-size="12" fill="#c9d1d9">CSS <tspan fill="#8b949e">22.3%</tspan></text><circle cx="30.0" cy="117" r="5" fill="#8b949e"/><text x="42.0" y="122" font-family="'JetBrains Mono','Fira Code',Consolas,monospace" font-size="12" fill="#c9d1d9">PHP <tspan fill="#8b949e">21.0%</tspan></text><circle cx="356.0" cy="117" r="5" fill="#3572A5"/><text x="368.0" y="122" font-family="'JetBrains Mono','Fira Code',Consolas,monospace" font-size="12" fill="#c9d1d9">Python <tspan fill="#8b949e">10.9%</tspan></text><circle cx="30.0" cy="141" r="5" fill="#8b949e"/><text x="42.0" y="146" font-family="'JetBrains Mono','Fira Code',Consolas,monospace" font-size="12" fill="#c9d1d9">Visual Basic .NET <tspan fill="#8b949e">6.0%</tspan></text><circle cx="356.0" cy="141" r="5" fill="#f1e05a"/><text x="368.0" y="146" font-family="'JetBrains Mono','Fira Code',Consolas,monospace" font-size="12" fill="#c9d1d9">JavaScript <tspan fill="#8b949e">3.2%</tspan></text></svg>