<svg xmlns="http://www.w3.org/2000/svg" width="700" height="240" viewBox="0 0 700 240" role="img"><rect width="700" height="240" rx="10" fill="#0d1117" stroke="#30363d" stroke-width="1"/><text x="24" y="34" font-family="'JetBrains Mono','Fira Code',Consolas,monospace" font-size="16" font-weight="700" fill="#c9d1d9">Top Languages</text><rect x="24.0" y="54" width="243.3" height="14" fill="#e34c26"/><rect x="267.3" y="54" width="154.4" height="14" fill="#563d7c"/><rect x="421.7" y="54" width="146.0" height="14" fill="#8b949e"/><rect x="567.7" y="54" width="75.9" height="14" fill="#3572A5"/><rect x="643.6" y="54" width="22.5" height="14" fill="#f1e05a"/><rect x="666.1" y="54" width="9.9" height="14" fill="#89e051"/><circle cx="30.0" cy="93" r="5" fill="#e34c26"/><text x="42.0" y="98" font-family="'JetBrains Mono','Fira Code',Consolas,monospace" font-size="12" fill="#c9d1d9">HTML <tspan fill="#8b949e">37.3%</tspan></text><circle cx="356.0" cy="93" r="5" fill="#563d7c"/><text x="368.0" y="98" font-family="'JetBrains Mono','Fira Code',Consolas,monospace" font-size="12" fill="#c9d1d9">CSS <tspan fill="#8b949e">23.7%</tspan></text><circle cx="30.0" cy="117" r="5" fill="#8b949e"/><text x="42.0" y="122" font-family="'JetBrains Mono','Fira Code',Consolas,monospace" font-size="12" fill="#c9d1d9">PHP <tspan fill="#8b949e">22.4%</tspan></text><circle cx="356.0" cy="117" r="5" fill="#3572A5"/><text x="368.0" y="122" font-family="'JetBrains Mono','Fira Code',Consolas,monospace" font-size="12" fill="#c9d1d9">Python <tspan fill="#8b949e">11.6%</tspan></text><circle cx="30.0" cy="141" r="5" fill="#f1e05a"/><text x="42.0" y="146" font-family="'JetBrains Mono','Fira Code',Consolas,monospace" font-size="12" fill="#c9d1d9">JavaScript <tspan fill="#8b949e">3.4%</tspan></text><circle cx="356.0" cy="141" r="5" fill="#89e051"/><text x="368.0" y="146" font-family="'JetBrains Mono','Fira Code',Consolas,monospace" font-size="12" fill="#c9d1d9">Shell <tspan fill="#8b949e">1.5%</tspan></text></svg>